<?xml version="1.0" encoding="UTF-8" standalone="no"?>
<!-- Created with Inkscape (http://www.inkscape.org/) -->

<svg
   width="119.38137mm"
   height="137.86131mm"
   viewBox="0 0 119.38137 137.86131"
   version="1.1"
   id="svg5"
   xml:space="preserve"
   xmlns:inkscape="http://www.inkscape.org/namespaces/inkscape"
   xmlns:sodipodi="http://sodipodi.sourceforge.net/DTD/sodipodi-0.dtd"
   xmlns="http://www.w3.org/2000/svg"
   xmlns:svg="http://www.w3.org/2000/svg"><sodipodi:namedview
     id="namedview7"
     pagecolor="#ffffff"
     bordercolor="#000000"
     borderopacity="0.25"
     inkscape:showpageshadow="2"
     inkscape:pageopacity="0.0"
     inkscape:pagecheckerboard="0"
     inkscape:deskcolor="#d1d1d1"
     inkscape:document-units="mm"
     showgrid="false" /><defs
     id="defs2" /><g
     inkscape:label="Layer 1"
     inkscape:groupmode="layer"
     id="layer1"
     transform="translate(-45.309304,-79.569349)"><g
       id="g2855"><g
         id="g2844"
         transform="matrix(1,0,0,0.6788901,-3.5608521,59.012969)"
         style="stroke-width:1.21367"><g
           id="g2833"
           style="stroke-width:1.21367"><ellipse
             style="fill:#c99619;fill-opacity:1;stroke:#000000;stroke-width:0;stroke-linecap:round;stroke-linejoin:bevel"
             id="ellipse2288"
             cx="108.56085"
             cy="181.83705"
             rx="59.690693"
             ry="13.475216" /><ellipse
             style="fill:#e8d8a6;fill-opacity:1;stroke:#000000;stroke-width:0;stroke-linecap:round;stroke-linejoin:bevel"
             id="path2282"
             cx="108.56085"
             cy="177.60378"
             rx="59.690693"
             ry="13.475216" /></g></g><g
         id="g2839"
         transform="translate(-3.7041684)"><rect
           style="fill:#c99619;fill-opacity:1;stroke:#000000;stroke-width:0;stroke-linecap:round;stroke-linejoin:bevel"
           id="rect2691"
           width="6.7411199"
           height="11.716242"
           x="131.42021"
           y="93.391068" /><path
           style="fill:#c99619;fill-opacity:1;stroke-width:1"
           d="m 80.586208,217.26237 c -0.0883,-0.0883 -0.11148,-0.71339 -0.0515,-1.38906 0.06,-0.67567 0.23486,-3.60974 0.38857,-6.52016 0.60701,-11.49369 0.81633,-15.55043 1.05806,-20.50521 0.13844,-2.83765 0.3749,-7.3025 0.52546,-9.92187 0.28553,-4.96738 0.55229,-9.95812 1.20915,-22.62188 0.21512,-4.14734 0.56972,-10.93391 0.788,-15.08125 1.02797,-19.53148 1.21688,-23.11106 1.58486,-30.03021 0.2167,-4.07458 0.51292,-9.84911 0.65827,-12.832294 0.14535,-2.98318 0.38271,-7.11315 0.52746,-9.17771 0.14475,-2.06456 0.26449,-4.6244 0.26609,-5.68854 0.002,-1.06414 0.0767,-2.38128 0.16691,-2.92698 l 0.164,-0.99219 h 12.533102 c 6.8932,0 12.53415,0.0298 12.53546,0.0662 0.001,0.0364 0.12253,2.03067 0.26941,4.43177 0.14688,2.40109 0.44551,7.81844 0.66361,12.03854 0.21811,4.220104 0.57214,11.006674 0.78673,15.081254 0.39542,7.50803 0.88006,16.72083 1.58669,30.1625 0.2142,4.07458 0.50751,9.73005 0.65179,12.56771 0.14429,2.83766 0.38494,7.3025 0.53479,9.92188 0.36721,6.41901 0.76565,13.99904 1.06395,20.24062 0.13562,2.83766 0.36829,7.24297 0.51705,9.78959 0.28589,4.89417 0.73646,13.27497 1.04552,19.44687 0.10201,2.03729 0.14163,3.79346 0.088,3.90261 -0.0536,0.10914 -3.71451,0.19843 -8.13539,0.19843 h -8.03797 l -0.14127,-1.12448 c -0.0777,-0.61846 -0.26655,-5.76791 -0.41968,-11.44323 -0.15313,-5.67531 -0.35288,-11.47961 -0.44389,-12.89843 l -0.16546,-2.57969 h -2.43815 -2.438179 l -0.17997,3.77031 c -0.33977,7.11852 -0.67449,17.26704 -0.67972,20.60919 -0.004,2.80305 -0.0731,3.37116 -0.42375,3.50573 -0.54653,0.20973 -15.848313,0.20975 -16.058033,3e-5 z m 21.634992,-44.5525 c 0.15407,-0.2493 -0.0674,-8.15289 -0.66733,-23.81401 -0.14773,-3.85631 -0.38324,-10.76193 -0.52337,-15.34584 -0.14013,-4.5839 -0.34379,-9.94172 -0.45258,-11.90625 l -0.1978,-3.57187 -0.18097,3.30729 c -0.0995,1.81901 -0.310779,7.29588 -0.469439,12.17083 -0.15866,4.87495 -0.4092,11.89964 -0.55676,15.61042 -0.48256,12.1356 -0.78512,23.33735 -0.63683,23.57729 0.19975,0.32321 3.483449,0.29838 3.685079,-0.0279 z m 23.48211,-12.49925 0.0667,-57.21997 h 8.06979 8.0698 v 57.15 57.15 l -8.13654,0.07 -8.13654,0.07 z m 5.43027,-64.606094 c -3.29188,-0.95081 -5.28887,-3.63581 -5.45732,-7.33751 -0.18983,-4.17163 1.46304,-6.76304 5.24852,-8.22876 3.50319,-1.35643 8.4538,0.35942 10.04691,3.48218 1.69926,3.33082 1.03129,8.00353 -1.48585,10.39404 -1.77831,1.68886 -5.64647,2.47156 -8.35226,1.69005 z"
           id="path1455" /><path
           style="fill:#e8d8a6;fill-opacity:1;stroke-width:1"
           d="m 75.581177,217.26237 c -0.0883,-0.0883 -0.11148,-0.71339 -0.0515,-1.38906 0.06,-0.67567 0.23486,-3.60974 0.38857,-6.52016 0.60701,-11.49369 0.81633,-15.55043 1.05806,-20.50521 0.13844,-2.83765 0.3749,-7.3025 0.52546,-9.92187 0.28553,-4.96738 0.55229,-9.95812 1.20915,-22.62188 0.21512,-4.14734 0.56972,-10.93391 0.788,-15.08125 1.02797,-19.53148 1.21688,-23.11106 1.58486,-30.03021 0.2167,-4.07458 0.51292,-9.84911 0.65827,-12.832294 0.14535,-2.98318 0.38271,-7.11315 0.52746,-9.17771 0.14475,-2.06456 0.26449,-4.6244 0.26609,-5.68854 0.002,-1.06414 0.0767,-2.38128 0.16691,-2.92698 l 0.164,-0.99219 h 12.5331 c 6.893223,0 12.534203,0.0298 12.535513,0.0662 0.001,0.0364 0.12253,2.03067 0.26941,4.43177 0.14688,2.40109 0.44551,7.81844 0.66361,12.03854 0.21811,4.220104 0.57214,11.006674 0.78673,15.081254 0.39542,7.50803 0.88006,16.72083 1.58669,30.1625 0.2142,4.07458 0.50751,9.73005 0.65179,12.56771 0.14429,2.83766 0.38494,7.3025 0.53479,9.92188 0.36721,6.41901 0.76565,13.99904 1.06395,20.24062 0.13562,2.83766 0.36829,7.24297 0.51705,9.78959 0.28589,4.89417 0.73646,13.27497 1.04552,19.44687 0.10201,2.03729 0.14163,3.79346 0.088,3.90261 -0.0536,0.10914 -3.71451,0.19843 -8.13539,0.19843 h -8.038011 l -0.14127,-1.12448 c -0.0777,-0.61846 -0.26655,-5.76791 -0.41968,-11.44323 -0.15313,-5.67531 -0.35288,-11.47961 -0.44389,-12.89843 l -0.16546,-2.57969 h -2.438162 -2.43818 l -0.17997,3.77031 c -0.33977,7.11852 -0.67449,17.26704 -0.67972,20.60919 -0.004,2.80305 -0.0731,3.37116 -0.42375,3.50573 -0.54653,0.20973 -15.84831,0.20975 -16.05803,3e-5 z m 21.634992,-44.5525 c 0.15407,-0.2493 -0.0674,-8.15289 -0.66733,-23.81401 -0.14773,-3.85631 -0.38324,-10.76193 -0.52337,-15.34584 -0.140132,-4.5839 -0.343792,-9.94172 -0.452582,-11.90625 l -0.1978,-3.57187 -0.18097,3.30729 c -0.0995,1.81901 -0.31078,7.29588 -0.46944,12.17083 -0.15866,4.87495 -0.4092,11.89964 -0.55676,15.61042 -0.48256,12.1356 -0.78512,23.33735 -0.63683,23.57729 0.19975,0.32321 3.483452,0.29838 3.685082,-0.0279 z m 23.482161,-12.49925 0.0667,-57.21997 h 8.06979 8.0698 v 57.15 57.15 l -8.13654,0.07 -8.13654,0.07 z m 5.43027,-64.606094 c -3.29188,-0.95081 -5.28887,-3.63581 -5.45732,-7.33751 -0.18983,-4.17163 1.46304,-6.76304 5.24852,-8.22876 3.50319,-1.35643 8.4538,0.35942 10.04691,3.48218 1.69926,3.33082 1.03129,8.00353 -1.48585,10.39404 -1.77831,1.68886 -5.64647,2.47156 -8.35226,1.69005 z"
           id="path1453" /><rect
           style="fill:#e8d8a6;fill-opacity:1;stroke:#000000;stroke-width:0;stroke-linecap:round;stroke-linejoin:bevel"
           id="rect2689"
           width="6.7411199"
           height="11.716242"
           x="125.59943"
           y="93.391068" /></g></g></g></svg>
