<?xml version="1.0" encoding="UTF-8" standalone="no"?>
<!-- Created with Inkscape (http://www.inkscape.org/) -->

<svg
   width="3.8781662mm"
   height="3.8710632mm"
   viewBox="0 0 3.8781662 3.8710632"
   version="1.1"
   id="svg5"
   xml:space="preserve"
   xmlns:inkscape="http://www.inkscape.org/namespaces/inkscape"
   xmlns:sodipodi="http://sodipodi.sourceforge.net/DTD/sodipodi-0.dtd"
   xmlns="http://www.w3.org/2000/svg"
   xmlns:svg="http://www.w3.org/2000/svg"><sodipodi:namedview
     id="namedview7"
     pagecolor="#ffffff"
     bordercolor="#000000"
     borderopacity="0.25"
     inkscape:showpageshadow="2"
     inkscape:pageopacity="0.0"
     inkscape:pagecheckerboard="0"
     inkscape:deskcolor="#d1d1d1"
     inkscape:document-units="mm"
     showgrid="false" /><defs
     id="defs2" /><g
     inkscape:label="Layer 1"
     inkscape:groupmode="layer"
     id="layer1"
     transform="translate(-110.19979,-235.50813)"><path
       style="fill:#000000;stroke-width:1"
       d="m 111.78314,239.35824 c -1.23223,-0.27393 -1.91446,-1.59355 -1.42245,-2.75144 0.15936,-0.37504 0.47388,-0.72682 0.84414,-0.9441 0.0959,-0.0563 0.33593,-0.16333 0.34527,-0.15399 0.003,0.003 -0.009,0.0528 -0.0273,0.11059 -0.088,0.28268 -0.092,0.70986 -0.01,1.02442 0.20283,0.77445 0.85249,1.36067 1.63937,1.47928 0.28283,0.0426 0.58107,0.0243 0.83102,-0.0512 0.0474,-0.0143 0.0893,-0.0229 0.0931,-0.0191 0.0106,0.0106 -0.0311,0.12975 -0.0794,0.22674 -0.24917,0.50102 -0.70166,0.88001 -1.24847,1.04567 -0.14402,0.0437 -0.18427,0.0479 -0.50454,0.0528 -0.25673,0.004 -0.37768,-0.001 -0.46113,-0.0197 z"
       id="path893" /></g></svg>
