<?xml version="1.0" encoding="UTF-8" standalone="no"?>
<!-- Created with Inkscape (http://www.inkscape.org/) -->

<svg
   width="3.8781662mm"
   height="3.8710632mm"
   viewBox="0 0 3.8781662 3.8710632"
   version="1.1"
   id="svg5"
   xml:space="preserve"
   sodipodi:docname="moon.svg"
   inkscape:version="1.2.1 (9c6d41e410, 2022-07-14)"
   xmlns:inkscape="http://www.inkscape.org/namespaces/inkscape"
   xmlns:sodipodi="http://sodipodi.sourceforge.net/DTD/sodipodi-0.dtd"
   xmlns="http://www.w3.org/2000/svg"
   xmlns:svg="http://www.w3.org/2000/svg"><sodipodi:namedview
     id="namedview7"
     pagecolor="#ffffff"
     bordercolor="#000000"
     borderopacity="0.25"
     inkscape:showpageshadow="2"
     inkscape:pageopacity="0.0"
     inkscape:pagecheckerboard="0"
     inkscape:deskcolor="#d1d1d1"
     inkscape:document-units="mm"
     showgrid="false"
     inkscape:zoom="26.519415"
     inkscape:cx="-2.5641591"
     inkscape:cy="4.6758195"
     inkscape:window-width="1920"
     inkscape:window-height="974"
     inkscape:window-x="-11"
     inkscape:window-y="-11"
     inkscape:window-maximized="1"
     inkscape:current-layer="layer1" /><defs
     id="defs2" /><g
     inkscape:label="Layer 1"
     inkscape:groupmode="layer"
     id="layer1"
     transform="translate(-110.19979,-235.50813)"><path
       style="fill:#000000;stroke-width:1"
       d="m 111.86932,238.8944 c -0.9337,-0.20757 -1.45064,-1.20748 -1.07783,-2.08485 0.12075,-0.28418 0.35907,-0.55074 0.63963,-0.71538 0.0727,-0.0427 0.25454,-0.12376 0.26162,-0.11668 0.002,0.002 -0.007,0.04 -0.0207,0.0838 -0.0667,0.21419 -0.0697,0.53788 -0.008,0.77623 0.15369,0.58683 0.64596,1.03102 1.2422,1.1209 0.21431,0.0323 0.4403,0.0184 0.62969,-0.0388 0.0359,-0.0108 0.0677,-0.0174 0.0705,-0.0145 0.008,0.008 -0.0236,0.0983 -0.0602,0.17181 -0.1888,0.37964 -0.53167,0.66681 -0.946,0.79233 -0.10913,0.0331 -0.13963,0.0363 -0.38231,0.04 -0.19453,0.003 -0.28618,-7.5e-4 -0.34941,-0.0149 z"
       id="path893" /></g></svg>
