<?xml version="1.0" encoding="UTF-8" standalone="no"?>
<!-- Created with Inkscape (http://www.inkscape.org/) -->

<svg
   width="5.2915802mm"
   height="5.2917328mm"
   viewBox="0 0 5.2915802 5.2917328"
   version="1.1"
   id="svg5"
   xml:space="preserve"
   xmlns:inkscape="http://www.inkscape.org/namespaces/inkscape"
   xmlns:sodipodi="http://sodipodi.sourceforge.net/DTD/sodipodi-0.dtd"
   xmlns="http://www.w3.org/2000/svg"
   xmlns:svg="http://www.w3.org/2000/svg"><sodipodi:namedview
     id="namedview7"
     pagecolor="#ffffff"
     bordercolor="#000000"
     borderopacity="0.25"
     inkscape:showpageshadow="2"
     inkscape:pageopacity="0.0"
     inkscape:pagecheckerboard="0"
     inkscape:deskcolor="#d1d1d1"
     inkscape:document-units="mm"
     showgrid="false" /><defs
     id="defs2" /><g
     inkscape:label="Layer 1"
     inkscape:groupmode="layer"
     id="layer1"
     transform="translate(-233.4804,-231.18667)"><path
       style="fill:#ffffff;stroke-width:0.999999"
       d="m 236.10584,236.45028 c -0.0472,-0.11721 -0.30186,-0.8507 -0.30186,-0.86948 0,-0.0119 0.14624,-0.0215 0.32498,-0.0215 0.18482,0 0.32499,0.01 0.32499,0.0223 0,0.0348 -0.29302,0.87079 -0.31289,0.89265 -0.01,0.0107 -0.0256,-1e-5 -0.0352,-0.0239 z m -1.69992,-1.07607 c 0.0896,-0.19371 0.1869,-0.3987 0.21622,-0.45555 l 0.0533,-0.10336 0.1449,0.15685 c 0.0797,0.0863 0.18893,0.19423 0.24275,0.23992 l 0.0978,0.0831 -0.45208,0.21563 c -0.24865,0.11859 -0.45518,0.21562 -0.45897,0.21562 -0.004,0 0.0664,-0.15848 0.15602,-0.35218 z m 3.15538,0.13906 c -0.24494,-0.1162 -0.44123,-0.2165 -0.4362,-0.22288 0.005,-0.006 0.11127,-0.1154 0.2361,-0.24227 l 0.22695,-0.23065 0.17636,0.36492 c 0.16644,0.34439 0.25773,0.54516 0.24693,0.54308 -0.003,-5.4e-4 -0.20519,-0.096 -0.45014,-0.2122 z m -1.64899,-0.16169 c -0.54698,-0.072 -1.03748,-0.4853 -1.22764,-1.03451 -0.0629,-0.18178 -0.0699,-0.23156 -0.0679,-0.48891 0.002,-0.23924 0.0124,-0.31806 0.0645,-0.47755 0.157,-0.48139 0.57925,-0.87507 1.07634,-1.00349 0.19786,-0.0511 0.56373,-0.051 0.75575,1.8e-4 1.14443,0.30533 1.52784,1.73603 0.68837,2.56867 -0.34454,0.34174 -0.80925,0.49873 -1.28936,0.43557 z m -1.96743,-1.34175 c -0.24796,-0.0884 -0.45688,-0.16671 -0.46427,-0.17404 -0.007,-0.007 0.16299,-0.0754 0.37861,-0.15137 0.21563,-0.0759 0.42726,-0.15199 0.47029,-0.16904 l 0.0782,-0.031 v 0.345 c 0,0.18976 -0.003,0.34414 -0.006,0.34309 -0.003,-0.001 -0.20889,-0.0742 -0.45685,-0.16263 z m 3.9053,-0.16718 c 0,-0.18526 0.008,-0.33689 0.018,-0.33696 0.0536,-3.6e-4 0.91951,0.32107 0.9036,0.33541 -0.0104,0.009 -0.20307,0.0819 -0.42815,0.16122 -0.22509,0.0793 -0.4282,0.15162 -0.45137,0.16068 -0.0389,0.0152 -0.0421,-0.009 -0.0421,-0.32035 z m -3.3927,-1.44164 c -0.11167,-0.2394 -0.20695,-0.44309 -0.21173,-0.45265 -0.007,-0.014 0.3864,0.16715 0.8269,0.38081 l 0.0751,0.0364 -0.23627,0.23583 c -0.12995,0.1297 -0.23958,0.23561 -0.24363,0.23534 -0.004,-2.7e-4 -0.0987,-0.19635 -0.21039,-0.43576 z m 2.88499,0.19791 -0.23087,-0.23458 0.45536,-0.21664 c 0.25044,-0.11915 0.45183,-0.20709 0.44753,-0.19543 -0.036,0.0975 -0.41707,0.88456 -0.42758,0.88311 -0.007,-10e-4 -0.11746,-0.10743 -0.24444,-0.23646 z m -1.53846,-0.51194 c -4e-5,-0.0257 0.28644,-0.8462 0.31184,-0.89317 0.0112,-0.0208 0.0307,0.004 0.0563,0.0716 0.0923,0.24387 0.28181,0.79348 0.28183,0.81744 1e-5,0.0176 -0.10576,0.0261 -0.32496,0.0261 -0.18224,0 -0.32499,-0.01 -0.325,-0.022 z"
       id="path302"
       inkscape:export-filename="sun.svg"
       inkscape:export-xdpi="96"
       inkscape:export-ydpi="96" /></g></svg>
